<svg xmlns="http://www.w3.org/2000/svg" xmlns:xlink="http://www.w3.org/1999/xlink" width="119" zoomAndPan="magnify" viewBox="0 0 89.25 89.249999" height="119" preserveAspectRatio="xMidYMid meet" version="1.0"><defs><clipPath id="244cfbdf59"><path d="M 0 0 L 88.390625 0 L 88.390625 88.390625 L 0 88.390625 Z M 0 0 " clip-rule="nonzero"/></clipPath><clipPath id="241366cffe"><path d="M 44.195312 0 C 19.785156 0 0 19.785156 0 44.195312 C 0 68.601562 19.785156 88.390625 44.195312 88.390625 C 68.601562 88.390625 88.390625 68.601562 88.390625 44.195312 C 88.390625 19.785156 68.601562 0 44.195312 0 Z M 44.195312 0 " clip-rule="nonzero"/></clipPath></defs><g clip-path="url(#244cfbdf59)"><g clip-path="url(#241366cffe)"><path stroke-linecap="butt" transform="matrix(0.74375, 0, 0, 0.74375, 0.0000005, 0.00000198333)" fill="none" stroke-linejoin="miter" d="M 59.422268 -0.00000266667 C 26.60189 -0.00000266667 -0.000000672269 26.601888 -0.000000672269 59.422266 C -0.000000672269 92.237391 26.60189 118.844534 59.422268 118.844534 C 92.237393 118.844534 118.844536 92.237391 118.844536 59.422266 C 118.844536 26.601888 92.237393 -0.00000266667 59.422268 -0.00000266667 Z M 59.422268 -0.00000266667 " stroke="#000000" stroke-width="16" stroke-opacity="1" stroke-miterlimit="4"/></g></g><path fill="#231f20" d="M 32.820312 54.988281 C 29.433594 56.449219 25.503906 56.242188 22.273438 54.367188 C 21.40625 53.867188 20.59375 53.246094 19.855469 52.503906 C 15.265625 47.917969 15.265625 40.476562 19.855469 35.886719 C 24.441406 31.296875 31.882812 31.296875 36.472656 35.886719 C 36.503906 35.917969 36.535156 35.953125 36.566406 35.984375 L 42.152344 30.398438 C 42.121094 30.367188 42.089844 30.335938 42.058594 30.304688 C 34.382812 22.628906 21.941406 22.628906 14.269531 30.304688 C 6.597656 37.976562 6.597656 50.417969 14.269531 58.089844 C 14.996094 58.816406 15.765625 59.476562 16.574219 60.066406 C 18.929688 61.792969 21.585938 62.929688 24.335938 63.472656 L 32.820312 54.988281 " fill-opacity="1" fill-rule="nonzero"/><path fill="#231f20" d="M 42.167969 57.976562 L 44.199219 55.949219 L 63.984375 36.164062 C 62.824219 35.621094 61.550781 35.335938 60.230469 35.335938 C 57.863281 35.335938 55.636719 36.257812 53.964844 37.929688 L 28.050781 63.84375 C 33.117188 63.871094 38.191406 61.957031 42.058594 58.089844 L 42.167969 57.980469 L 42.167969 57.976562 " fill-opacity="1" fill-rule="nonzero"/><path fill="#eb6a2c" d="M 74.125 30.300781 C 73.394531 29.574219 72.625 28.917969 71.820312 28.328125 C 69.460938 26.601562 66.804688 25.464844 64.054688 24.921875 L 55.574219 33.40625 C 58.960938 31.945312 62.890625 32.152344 66.121094 34.027344 C 66.984375 34.527344 67.796875 35.148438 68.539062 35.886719 C 73.128906 40.476562 73.128906 47.917969 68.539062 52.507812 C 63.949219 57.09375 56.507812 57.09375 51.921875 52.507812 C 51.886719 52.472656 51.859375 52.441406 51.824219 52.410156 L 46.242188 57.992188 C 46.273438 58.027344 46.304688 58.058594 46.335938 58.089844 C 54.007812 65.765625 66.449219 65.765625 74.125 58.089844 C 81.796875 50.417969 81.796875 37.976562 74.125 30.300781 " fill-opacity="1" fill-rule="nonzero"/><path fill="#eb6a2c" d="M 46.226562 30.414062 L 44.195312 32.441406 L 36.542969 40.09375 L 24.410156 52.230469 C 25.570312 52.773438 26.84375 53.058594 28.164062 53.058594 C 30.53125 53.058594 32.753906 52.136719 34.429688 50.460938 L 60.34375 24.550781 C 55.277344 24.519531 50.199219 26.4375 46.335938 30.300781 L 46.222656 30.414062 L 46.226562 30.414062 " fill-opacity="1" fill-rule="nonzero"/></svg>