<svg xmlns="http://www.w3.org/2000/svg" xmlns:xlink="http://www.w3.org/1999/xlink" width="220" zoomAndPan="magnify" viewBox="0 0 165 93.749996" height="125" preserveAspectRatio="xMidYMid meet" version="1.0"><path fill="#231f20" d="M 57.609375 70.824219 C 50.203125 74.015625 41.597656 73.5625 34.527344 69.460938 C 32.636719 68.363281 30.855469 67.007812 29.238281 65.386719 C 19.195312 55.347656 19.195312 39.0625 29.238281 29.023438 C 39.277344 18.980469 55.5625 18.980469 65.601562 29.023438 C 65.675781 29.09375 65.742188 29.164062 65.8125 29.234375 L 78.03125 17.015625 C 77.964844 16.945312 77.894531 16.871094 77.824219 16.800781 C 61.035156 0.0078125 33.808594 0.0078125 17.015625 16.800781 C 0.222656 33.59375 0.222656 60.820312 17.015625 77.613281 C 18.609375 79.203125 20.292969 80.644531 22.054688 81.933594 C 27.214844 85.714844 33.03125 88.195312 39.046875 89.386719 L 57.609375 70.824219 " fill-opacity="1" fill-rule="nonzero"/><path fill="#231f20" d="M 78.066406 77.363281 L 82.507812 72.929688 L 99.253906 56.183594 L 125.804688 29.628906 C 123.269531 28.441406 120.480469 27.8125 117.59375 27.8125 C 112.414062 27.8125 107.542969 29.832031 103.882812 33.492188 L 47.175781 90.199219 C 58.261719 90.261719 69.367188 86.070312 77.824219 77.613281 L 78.070312 77.367188 L 78.066406 77.363281 " fill-opacity="1" fill-rule="nonzero"/><path fill="#eb6a2c" d="M 147.996094 16.800781 C 146.402344 15.210938 144.71875 13.769531 142.957031 12.480469 C 137.796875 8.699219 131.984375 6.214844 125.964844 5.027344 L 107.402344 23.589844 C 114.8125 20.394531 123.414062 20.847656 130.484375 24.953125 C 132.375 26.046875 134.15625 27.40625 135.773438 29.023438 C 145.816406 39.066406 145.816406 55.347656 135.773438 65.390625 C 125.734375 75.433594 109.453125 75.433594 99.410156 65.390625 C 99.335938 65.320312 99.269531 65.246094 99.203125 65.175781 L 86.980469 77.398438 C 87.050781 77.46875 87.117188 77.539062 87.1875 77.609375 C 103.980469 94.402344 131.203125 94.402344 147.996094 77.609375 C 164.789062 60.820312 164.789062 33.59375 147.996094 16.800781 " fill-opacity="1" fill-rule="nonzero"/><path fill="#eb6a2c" d="M 86.945312 17.046875 L 82.503906 21.484375 L 39.207031 64.78125 C 41.746094 65.96875 44.535156 66.597656 47.421875 66.597656 C 52.601562 66.597656 57.46875 64.582031 61.132812 60.917969 L 117.839844 4.210938 C 106.753906 4.148438 95.644531 8.34375 87.1875 16.800781 L 86.941406 17.042969 L 86.945312 17.046875 " fill-opacity="1" fill-rule="nonzero"/></svg>