<svg xmlns="http://www.w3.org/2000/svg" xmlns:xlink="http://www.w3.org/1999/xlink" width="350" zoomAndPan="magnify" viewBox="0 0 262.5 104.999996" height="140" preserveAspectRatio="xMidYMid meet" version="1.0"><defs><g/></defs><g fill="#000000" fill-opacity="1"><g transform="translate(2.660938, 75.045125)"><g><path d="M 83.6875 -28.15625 C 83.6875 -25.40625 83.332031 -22.800781 82.625 -20.34375 C 81.925781 -17.882812 80.929688 -15.609375 79.640625 -13.515625 C 78.359375 -11.421875 76.84375 -9.539062 75.09375 -7.875 C 73.34375 -6.21875 71.425781 -4.800781 69.34375 -3.625 C 67.269531 -2.457031 65.054688 -1.5625 62.703125 -0.9375 C 60.359375 -0.3125 57.96875 0 55.53125 0 L 33.515625 0 C 31.035156 0 28.625 -0.3125 26.28125 -0.9375 C 23.9375 -1.5625 21.722656 -2.457031 19.640625 -3.625 C 17.554688 -4.800781 15.640625 -6.21875 13.890625 -7.875 C 12.140625 -9.539062 10.628906 -11.421875 9.359375 -13.515625 C 8.097656 -15.609375 7.113281 -17.882812 6.40625 -20.34375 C 5.695312 -22.800781 5.34375 -25.40625 5.34375 -28.15625 L 5.34375 -39.140625 C 5.34375 -43.273438 6.117188 -47.0625 7.671875 -50.5 C 9.222656 -53.945312 11.296875 -56.910156 13.890625 -59.390625 C 16.484375 -61.878906 19.476562 -63.820312 22.875 -65.21875 C 26.269531 -66.613281 29.816406 -67.3125 33.515625 -67.3125 L 55.53125 -67.3125 C 57.96875 -67.3125 60.359375 -66.992188 62.703125 -66.359375 C 65.054688 -65.734375 67.269531 -64.832031 69.34375 -63.65625 C 71.425781 -62.488281 73.34375 -61.078125 75.09375 -59.421875 C 76.84375 -57.765625 78.359375 -55.882812 79.640625 -53.78125 C 80.929688 -51.6875 81.925781 -49.410156 82.625 -46.953125 C 83.332031 -44.503906 83.6875 -41.898438 83.6875 -39.140625 Z M 71.390625 -39.140625 C 71.390625 -41.554688 70.953125 -43.75 70.078125 -45.71875 C 69.203125 -47.6875 68.035156 -49.375 66.578125 -50.78125 C 65.117188 -52.1875 63.4375 -53.265625 61.53125 -54.015625 C 59.625 -54.773438 57.625 -55.140625 55.53125 -55.109375 L 33.515625 -55.109375 C 31.484375 -55.140625 29.503906 -54.785156 27.578125 -54.046875 C 25.648438 -53.304688 23.941406 -52.238281 22.453125 -50.84375 C 20.972656 -49.457031 19.785156 -47.769531 18.890625 -45.78125 C 17.992188 -43.800781 17.546875 -41.585938 17.546875 -39.140625 L 17.546875 -28.15625 C 17.546875 -25.71875 17.984375 -23.515625 18.859375 -21.546875 C 19.742188 -19.578125 20.921875 -17.894531 22.390625 -16.5 C 23.859375 -15.101562 25.554688 -14.03125 27.484375 -13.28125 C 29.410156 -12.53125 31.421875 -12.171875 33.515625 -12.203125 L 55.53125 -12.203125 C 57.9375 -12.203125 60.113281 -12.597656 62.0625 -13.390625 C 64.019531 -14.191406 65.6875 -15.296875 67.0625 -16.703125 C 68.445312 -18.117188 69.515625 -19.800781 70.265625 -21.75 C 71.015625 -23.707031 71.390625 -25.84375 71.390625 -28.15625 Z M 66.09375 -48.0625 C 66.5625 -47.375 66.875 -46.628906 67.03125 -45.828125 C 67.1875 -45.035156 67.1875 -44.253906 67.03125 -43.484375 C 66.875 -42.722656 66.566406 -42.003906 66.109375 -41.328125 C 65.648438 -40.648438 65.0625 -40.078125 64.34375 -39.609375 L 31.40625 -17.59375 C 30.875 -17.1875 30.320312 -16.90625 29.75 -16.75 C 29.1875 -16.59375 28.609375 -16.515625 28.015625 -16.515625 C 27.015625 -16.515625 26.0625 -16.75 25.15625 -17.21875 C 24.25 -17.6875 23.515625 -18.363281 22.953125 -19.25 C 22.484375 -19.9375 22.171875 -20.675781 22.015625 -21.46875 C 21.859375 -22.269531 21.847656 -23.050781 21.984375 -23.8125 C 22.128906 -24.582031 22.421875 -25.300781 22.859375 -25.96875 C 23.296875 -26.644531 23.875 -27.21875 24.59375 -27.6875 L 57.640625 -49.703125 C 58.328125 -50.171875 59.066406 -50.484375 59.859375 -50.640625 C 60.660156 -50.796875 61.441406 -50.796875 62.203125 -50.640625 C 62.972656 -50.484375 63.691406 -50.1875 64.359375 -49.75 C 65.035156 -49.3125 65.613281 -48.75 66.09375 -48.0625 Z M 66.09375 -48.0625 "/></g></g></g><g fill="#000000" fill-opacity="1"><g transform="translate(91.595137, 75.045125)"><g><path d="M 83.6875 -28.15625 C 83.6875 -25.40625 83.332031 -22.800781 82.625 -20.34375 C 81.925781 -17.882812 80.929688 -15.609375 79.640625 -13.515625 C 78.359375 -11.421875 76.84375 -9.539062 75.09375 -7.875 C 73.34375 -6.21875 71.425781 -4.800781 69.34375 -3.625 C 67.269531 -2.457031 65.054688 -1.5625 62.703125 -0.9375 C 60.359375 -0.3125 57.96875 0 55.53125 0 L 33.515625 0 C 31.035156 0 28.625 -0.3125 26.28125 -0.9375 C 23.9375 -1.5625 21.722656 -2.457031 19.640625 -3.625 C 17.554688 -4.800781 15.640625 -6.21875 13.890625 -7.875 C 12.140625 -9.539062 10.628906 -11.421875 9.359375 -13.515625 C 8.097656 -15.609375 7.113281 -17.882812 6.40625 -20.34375 C 5.695312 -22.800781 5.34375 -25.40625 5.34375 -28.15625 L 5.34375 -39.140625 C 5.34375 -43.273438 6.117188 -47.0625 7.671875 -50.5 C 9.222656 -53.945312 11.296875 -56.910156 13.890625 -59.390625 C 16.484375 -61.878906 19.476562 -63.820312 22.875 -65.21875 C 26.269531 -66.613281 29.816406 -67.3125 33.515625 -67.3125 L 55.53125 -67.3125 C 57.96875 -67.3125 60.359375 -66.992188 62.703125 -66.359375 C 65.054688 -65.734375 67.269531 -64.832031 69.34375 -63.65625 C 71.425781 -62.488281 73.34375 -61.078125 75.09375 -59.421875 C 76.84375 -57.765625 78.359375 -55.882812 79.640625 -53.78125 C 80.929688 -51.6875 81.925781 -49.410156 82.625 -46.953125 C 83.332031 -44.503906 83.6875 -41.898438 83.6875 -39.140625 Z M 71.390625 -39.140625 C 71.390625 -41.554688 70.953125 -43.75 70.078125 -45.71875 C 69.203125 -47.6875 68.035156 -49.375 66.578125 -50.78125 C 65.117188 -52.1875 63.4375 -53.265625 61.53125 -54.015625 C 59.625 -54.773438 57.625 -55.140625 55.53125 -55.109375 L 33.515625 -55.109375 C 31.484375 -55.140625 29.503906 -54.785156 27.578125 -54.046875 C 25.648438 -53.304688 23.941406 -52.238281 22.453125 -50.84375 C 20.972656 -49.457031 19.785156 -47.769531 18.890625 -45.78125 C 17.992188 -43.800781 17.546875 -41.585938 17.546875 -39.140625 L 17.546875 -28.15625 C 17.546875 -25.71875 17.984375 -23.515625 18.859375 -21.546875 C 19.742188 -19.578125 20.921875 -17.894531 22.390625 -16.5 C 23.859375 -15.101562 25.554688 -14.03125 27.484375 -13.28125 C 29.410156 -12.53125 31.421875 -12.171875 33.515625 -12.203125 L 55.53125 -12.203125 C 57.9375 -12.203125 60.113281 -12.597656 62.0625 -13.390625 C 64.019531 -14.191406 65.6875 -15.296875 67.0625 -16.703125 C 68.445312 -18.117188 69.515625 -19.800781 70.265625 -21.75 C 71.015625 -23.707031 71.390625 -25.84375 71.390625 -28.15625 Z M 66.09375 -48.0625 C 66.5625 -47.375 66.875 -46.628906 67.03125 -45.828125 C 67.1875 -45.035156 67.1875 -44.253906 67.03125 -43.484375 C 66.875 -42.722656 66.566406 -42.003906 66.109375 -41.328125 C 65.648438 -40.648438 65.0625 -40.078125 64.34375 -39.609375 L 31.40625 -17.59375 C 30.875 -17.1875 30.320312 -16.90625 29.75 -16.75 C 29.1875 -16.59375 28.609375 -16.515625 28.015625 -16.515625 C 27.015625 -16.515625 26.0625 -16.75 25.15625 -17.21875 C 24.25 -17.6875 23.515625 -18.363281 22.953125 -19.25 C 22.484375 -19.9375 22.171875 -20.675781 22.015625 -21.46875 C 21.859375 -22.269531 21.847656 -23.050781 21.984375 -23.8125 C 22.128906 -24.582031 22.421875 -25.300781 22.859375 -25.96875 C 23.296875 -26.644531 23.875 -27.21875 24.59375 -27.6875 L 57.640625 -49.703125 C 58.328125 -50.171875 59.066406 -50.484375 59.859375 -50.640625 C 60.660156 -50.796875 61.441406 -50.796875 62.203125 -50.640625 C 62.972656 -50.484375 63.691406 -50.1875 64.359375 -49.75 C 65.035156 -49.3125 65.613281 -48.75 66.09375 -48.0625 Z M 66.09375 -48.0625 "/></g></g></g><g fill="#eb6a2c" fill-opacity="1"><g transform="translate(180.53061, 75.045125)"><g><path d="M 77.625 0 L 60.3125 0 L 32.859375 -27.5 L 24.265625 -27.5 L 24.265625 -39.796875 L 32.859375 -39.796875 L 60.3125 -67.3125 L 77.625 -67.3125 L 43.046875 -33.65625 Z M 19.390625 0 L 7.1875 0 L 7.1875 -67.3125 L 19.390625 -67.3125 Z M 19.390625 0 "/></g></g></g><g fill="#eb6a2c" fill-opacity="1"><g transform="translate(49.126536, 93.930984)"><g><path d="M 11.546875 0 L 9.609375 0 L 9.609375 -2.609375 L 2.84375 -2.609375 L 2.84375 0 L 0.921875 0 L 0.921875 -5.3125 C 0.921875 -6.082031 1.050781 -6.796875 1.3125 -7.453125 C 1.582031 -8.109375 1.953125 -8.671875 2.421875 -9.140625 C 2.898438 -9.609375 3.460938 -9.972656 4.109375 -10.234375 C 4.753906 -10.492188 5.460938 -10.625 6.234375 -10.625 L 10.578125 -10.625 C 10.703125 -10.625 10.820312 -10.597656 10.9375 -10.546875 C 11.0625 -10.492188 11.164062 -10.421875 11.25 -10.328125 C 11.34375 -10.242188 11.414062 -10.144531 11.46875 -10.03125 C 11.519531 -9.914062 11.546875 -9.789062 11.546875 -9.65625 Z M 2.84375 -4.53125 L 9.609375 -4.53125 L 9.609375 -8.703125 L 6.234375 -8.703125 C 6.171875 -8.703125 6.046875 -8.691406 5.859375 -8.671875 C 5.671875 -8.648438 5.453125 -8.601562 5.203125 -8.53125 C 4.953125 -8.46875 4.6875 -8.363281 4.40625 -8.21875 C 4.132812 -8.082031 3.878906 -7.882812 3.640625 -7.625 C 3.410156 -7.375 3.21875 -7.0625 3.0625 -6.6875 C 2.914062 -6.3125 2.84375 -5.851562 2.84375 -5.3125 Z M 2.84375 -4.53125 "/></g></g></g><g fill="#eb6a2c" fill-opacity="1"><g transform="translate(63.543006, 93.930984)"><g><path d="M 3.0625 0 L 1.140625 0 L 1.140625 -10.625 L 3.0625 -10.625 Z M 3.0625 0 "/></g></g></g><g fill="#000000" fill-opacity="1"><g transform="translate(69.501303, 93.930984)"><g/></g></g><g fill="#000000" fill-opacity="1"><g transform="translate(76.194122, 93.930984)"><g><path d="M 11.328125 -3.125 C 11.328125 -2.75 11.273438 -2.40625 11.171875 -2.09375 C 11.078125 -1.789062 10.953125 -1.523438 10.796875 -1.296875 C 10.640625 -1.066406 10.453125 -0.867188 10.234375 -0.703125 C 10.023438 -0.535156 9.804688 -0.398438 9.578125 -0.296875 C 9.359375 -0.191406 9.128906 -0.113281 8.890625 -0.0625 C 8.660156 -0.0195312 8.441406 0 8.234375 0 L 0.796875 0 L 0.796875 -1.921875 L 8.234375 -1.921875 C 8.597656 -1.921875 8.882812 -2.03125 9.09375 -2.25 C 9.300781 -2.46875 9.40625 -2.757812 9.40625 -3.125 C 9.40625 -3.300781 9.375 -3.460938 9.3125 -3.609375 C 9.257812 -3.765625 9.179688 -3.894531 9.078125 -4 C 8.984375 -4.101562 8.863281 -4.1875 8.71875 -4.25 C 8.570312 -4.3125 8.410156 -4.34375 8.234375 -4.34375 L 3.796875 -4.34375 C 3.484375 -4.34375 3.144531 -4.394531 2.78125 -4.5 C 2.425781 -4.613281 2.09375 -4.796875 1.78125 -5.046875 C 1.476562 -5.296875 1.222656 -5.617188 1.015625 -6.015625 C 0.816406 -6.410156 0.71875 -6.898438 0.71875 -7.484375 C 0.71875 -8.054688 0.816406 -8.539062 1.015625 -8.9375 C 1.222656 -9.34375 1.476562 -9.671875 1.78125 -9.921875 C 2.09375 -10.171875 2.425781 -10.347656 2.78125 -10.453125 C 3.144531 -10.566406 3.484375 -10.625 3.796875 -10.625 L 10.359375 -10.625 L 10.359375 -8.703125 L 3.796875 -8.703125 C 3.429688 -8.703125 3.144531 -8.585938 2.9375 -8.359375 C 2.738281 -8.140625 2.640625 -7.847656 2.640625 -7.484375 C 2.640625 -7.109375 2.738281 -6.8125 2.9375 -6.59375 C 3.144531 -6.382812 3.429688 -6.28125 3.796875 -6.28125 L 8.25 -6.28125 C 8.457031 -6.28125 8.675781 -6.253906 8.90625 -6.203125 C 9.132812 -6.148438 9.363281 -6.066406 9.59375 -5.953125 C 9.820312 -5.847656 10.039062 -5.710938 10.25 -5.546875 C 10.457031 -5.378906 10.640625 -5.175781 10.796875 -4.9375 C 10.960938 -4.707031 11.09375 -4.441406 11.1875 -4.140625 C 11.28125 -3.847656 11.328125 -3.507812 11.328125 -3.125 Z M 11.328125 -3.125 "/></g></g></g><g fill="#000000" fill-opacity="1"><g transform="translate(89.758986, 93.930984)"><g><path d="M 9.609375 -2.703125 C 9.609375 -2.367188 9.566406 -2.070312 9.484375 -1.8125 C 9.398438 -1.550781 9.289062 -1.316406 9.15625 -1.109375 C 9.019531 -0.910156 8.859375 -0.738281 8.671875 -0.59375 C 8.492188 -0.457031 8.300781 -0.34375 8.09375 -0.25 C 7.894531 -0.164062 7.691406 -0.101562 7.484375 -0.0625 C 7.285156 -0.0195312 7.09375 0 6.90625 0 L 3.4375 0 C 3.164062 0 2.875 -0.046875 2.5625 -0.140625 C 2.25 -0.234375 1.957031 -0.382812 1.6875 -0.59375 C 1.414062 -0.8125 1.1875 -1.09375 1 -1.4375 C 0.820312 -1.78125 0.734375 -2.203125 0.734375 -2.703125 L 0.734375 -5.3125 C 0.734375 -5.800781 0.820312 -6.21875 1 -6.5625 C 1.1875 -6.90625 1.414062 -7.1875 1.6875 -7.40625 C 1.957031 -7.625 2.25 -7.78125 2.5625 -7.875 C 2.875 -7.96875 3.164062 -8.015625 3.4375 -8.015625 L 6.90625 -8.015625 C 7.40625 -8.015625 7.828125 -7.921875 8.171875 -7.734375 C 8.515625 -7.554688 8.789062 -7.332031 9 -7.0625 C 9.21875 -6.800781 9.375 -6.507812 9.46875 -6.1875 C 9.5625 -5.875 9.609375 -5.582031 9.609375 -5.3125 Z M 7.6875 -5.296875 C 7.6875 -5.566406 7.617188 -5.765625 7.484375 -5.890625 C 7.359375 -6.015625 7.164062 -6.078125 6.90625 -6.078125 L 3.453125 -6.078125 C 3.191406 -6.078125 2.992188 -6.007812 2.859375 -5.875 C 2.734375 -5.75 2.671875 -5.5625 2.671875 -5.3125 L 2.671875 -2.703125 C 2.671875 -2.453125 2.734375 -2.257812 2.859375 -2.125 C 2.992188 -1.988281 3.191406 -1.921875 3.453125 -1.921875 L 6.90625 -1.921875 C 7.164062 -1.921875 7.359375 -1.988281 7.484375 -2.125 C 7.617188 -2.257812 7.6875 -2.453125 7.6875 -2.703125 Z M 7.6875 -5.296875 "/></g></g></g><g fill="#000000" fill-opacity="1"><g transform="translate(101.865028, 93.930984)"><g><path d="M 8 -6.078125 L 3.640625 -6.078125 L 3.640625 -8.015625 L 8 -8.015625 Z M 8 -9.5625 L 3.65625 -9.5625 C 3.394531 -9.5625 3.195312 -9.492188 3.0625 -9.359375 C 2.925781 -9.222656 2.859375 -9.03125 2.859375 -8.78125 L 2.859375 0 L 0.9375 0 L 0.9375 -8.78125 C 0.9375 -9.113281 0.976562 -9.410156 1.0625 -9.671875 C 1.144531 -9.929688 1.253906 -10.160156 1.390625 -10.359375 C 1.535156 -10.566406 1.695312 -10.738281 1.875 -10.875 C 2.0625 -11.019531 2.253906 -11.132812 2.453125 -11.21875 C 2.648438 -11.3125 2.847656 -11.378906 3.046875 -11.421875 C 3.253906 -11.460938 3.453125 -11.484375 3.640625 -11.484375 L 8 -11.484375 Z M 8 -9.5625 "/></g></g></g><g fill="#000000" fill-opacity="1"><g transform="translate(111.971661, 93.930984)"><g><path d="M 8.1875 -6.078125 L 4.828125 -6.078125 L 4.828125 0 L 2.875 0 L 2.875 -6.078125 L 0.375 -6.078125 L 0.375 -8.015625 L 2.875 -8.015625 L 2.875 -10.625 L 4.828125 -10.625 L 4.828125 -8.015625 L 8.1875 -8.015625 Z M 8.1875 -6.078125 "/></g></g></g><g fill="#000000" fill-opacity="1"><g transform="translate(122.278228, 93.930984)"><g><path d="M 14.09375 -8.015625 C 13.78125 -7.328125 13.445312 -6.648438 13.09375 -5.984375 C 12.738281 -5.316406 12.367188 -4.6875 11.984375 -4.09375 C 11.597656 -3.5 11.203125 -2.953125 10.796875 -2.453125 C 10.390625 -1.953125 9.988281 -1.519531 9.59375 -1.15625 C 9.195312 -0.789062 8.804688 -0.503906 8.421875 -0.296875 C 8.046875 -0.0976562 7.691406 0 7.359375 0 C 7.222656 0 7.09375 -0.0195312 6.96875 -0.0625 C 6.851562 -0.113281 6.75 -0.179688 6.65625 -0.265625 C 6.570312 -0.359375 6.503906 -0.460938 6.453125 -0.578125 C 6.398438 -0.703125 6.375 -0.832031 6.375 -0.96875 L 6.375 -4.5625 L 2.5625 -0.28125 C 2.457031 -0.1875 2.347656 -0.113281 2.234375 -0.0625 C 2.117188 -0.0195312 2 0 1.875 0 C 1.738281 0 1.613281 -0.0195312 1.5 -0.0625 C 1.382812 -0.113281 1.28125 -0.179688 1.1875 -0.265625 C 1.101562 -0.359375 1.035156 -0.460938 0.984375 -0.578125 C 0.929688 -0.703125 0.90625 -0.832031 0.90625 -0.96875 L 0.90625 -8.015625 L 2.828125 -8.015625 L 2.828125 -3.4375 L 6.671875 -7.734375 C 6.804688 -7.867188 6.96875 -7.953125 7.15625 -7.984375 C 7.34375 -8.023438 7.53125 -8.007812 7.71875 -7.9375 C 7.90625 -7.863281 8.050781 -7.742188 8.15625 -7.578125 C 8.257812 -7.421875 8.3125 -7.242188 8.3125 -7.046875 L 8.3125 -2.46875 C 8.726562 -2.875 9.101562 -3.296875 9.4375 -3.734375 C 9.769531 -4.179688 10.082031 -4.640625 10.375 -5.109375 C 10.664062 -5.585938 10.9375 -6.066406 11.1875 -6.546875 C 11.445312 -7.035156 11.695312 -7.523438 11.9375 -8.015625 Z M 14.09375 -8.015625 "/></g></g></g><g fill="#000000" fill-opacity="1"><g transform="translate(137.886933, 93.930984)"><g><path d="M 9.171875 -2.65625 C 9.171875 -2.382812 9.125 -2.09375 9.03125 -1.78125 C 8.9375 -1.476562 8.785156 -1.191406 8.578125 -0.921875 C 8.367188 -0.660156 8.09375 -0.441406 7.75 -0.265625 C 7.414062 -0.0859375 7.003906 0 6.515625 0 L 3.046875 0 C 2.773438 0 2.484375 -0.046875 2.171875 -0.140625 C 1.867188 -0.234375 1.582031 -0.382812 1.3125 -0.59375 C 1.050781 -0.800781 0.832031 -1.070312 0.65625 -1.40625 C 0.476562 -1.75 0.390625 -2.164062 0.390625 -2.65625 C 0.390625 -2.914062 0.4375 -3.203125 0.53125 -3.515625 C 0.625 -3.828125 0.773438 -4.113281 0.984375 -4.375 C 1.191406 -4.644531 1.460938 -4.867188 1.796875 -5.046875 C 2.140625 -5.222656 2.554688 -5.3125 3.046875 -5.3125 L 6.515625 -5.3125 L 6.515625 -3.46875 L 3.046875 -3.46875 C 2.785156 -3.46875 2.582031 -3.390625 2.4375 -3.234375 C 2.289062 -3.078125 2.21875 -2.878906 2.21875 -2.640625 C 2.21875 -2.390625 2.300781 -2.191406 2.46875 -2.046875 C 2.632812 -1.910156 2.832031 -1.84375 3.0625 -1.84375 L 6.515625 -1.84375 C 6.773438 -1.84375 6.976562 -1.921875 7.125 -2.078125 C 7.269531 -2.234375 7.34375 -2.429688 7.34375 -2.671875 L 7.34375 -5.359375 C 7.34375 -5.609375 7.265625 -5.804688 7.109375 -5.953125 C 6.953125 -6.097656 6.753906 -6.171875 6.515625 -6.171875 L 2.296875 -6.171875 L 2.296875 -8.015625 L 6.515625 -8.015625 C 6.785156 -8.015625 7.070312 -7.96875 7.375 -7.875 C 7.6875 -7.78125 7.972656 -7.625 8.234375 -7.40625 C 8.503906 -7.195312 8.726562 -6.921875 8.90625 -6.578125 C 9.082031 -6.242188 9.171875 -5.835938 9.171875 -5.359375 Z M 9.171875 -2.65625 "/></g></g></g><g fill="#000000" fill-opacity="1"><g transform="translate(149.556061, 93.930984)"><g><path d="M 7.90625 -6.078125 L 3.578125 -6.078125 C 3.316406 -6.078125 3.117188 -6.007812 2.984375 -5.875 C 2.847656 -5.75 2.78125 -5.5625 2.78125 -5.3125 L 2.78125 0 L 0.859375 0 L 0.859375 -5.3125 C 0.859375 -5.644531 0.898438 -5.941406 0.984375 -6.203125 C 1.066406 -6.460938 1.175781 -6.691406 1.3125 -6.890625 C 1.457031 -7.085938 1.617188 -7.253906 1.796875 -7.390625 C 1.984375 -7.535156 2.175781 -7.648438 2.375 -7.734375 C 2.582031 -7.828125 2.785156 -7.894531 2.984375 -7.9375 C 3.191406 -7.988281 3.382812 -8.015625 3.5625 -8.015625 L 7.90625 -8.015625 Z M 7.90625 -6.078125 "/></g></g></g><g fill="#000000" fill-opacity="1"><g transform="translate(159.588641, 93.930984)"><g><path d="M 9.515625 -5.359375 C 9.515625 -5.085938 9.46875 -4.796875 9.375 -4.484375 C 9.28125 -4.179688 9.128906 -3.894531 8.921875 -3.625 C 8.710938 -3.363281 8.4375 -3.144531 8.09375 -2.96875 C 7.757812 -2.789062 7.351562 -2.703125 6.875 -2.703125 L 3.390625 -2.703125 L 3.390625 -4.53125 L 6.875 -4.53125 C 7.132812 -4.53125 7.332031 -4.609375 7.46875 -4.765625 C 7.613281 -4.929688 7.6875 -5.132812 7.6875 -5.375 C 7.6875 -5.625 7.601562 -5.816406 7.4375 -5.953125 C 7.28125 -6.097656 7.09375 -6.171875 6.875 -6.171875 L 3.390625 -6.171875 C 3.128906 -6.171875 2.925781 -6.09375 2.78125 -5.9375 C 2.644531 -5.78125 2.578125 -5.582031 2.578125 -5.34375 L 2.578125 -2.65625 C 2.578125 -2.394531 2.65625 -2.191406 2.8125 -2.046875 C 2.96875 -1.910156 3.164062 -1.84375 3.40625 -1.84375 L 6.875 -1.84375 L 6.875 0 L 3.390625 0 C 3.128906 0 2.84375 -0.046875 2.53125 -0.140625 C 2.21875 -0.234375 1.929688 -0.382812 1.671875 -0.59375 C 1.410156 -0.800781 1.1875 -1.070312 1 -1.40625 C 0.820312 -1.75 0.734375 -2.164062 0.734375 -2.65625 L 0.734375 -5.359375 C 0.734375 -5.617188 0.78125 -5.90625 0.875 -6.21875 C 0.96875 -6.53125 1.117188 -6.816406 1.328125 -7.078125 C 1.546875 -7.335938 1.820312 -7.554688 2.15625 -7.734375 C 2.5 -7.921875 2.910156 -8.015625 3.390625 -8.015625 L 6.875 -8.015625 C 7.132812 -8.015625 7.414062 -7.96875 7.71875 -7.875 C 8.03125 -7.78125 8.316406 -7.625 8.578125 -7.40625 C 8.847656 -7.195312 9.070312 -6.921875 9.25 -6.578125 C 9.425781 -6.242188 9.515625 -5.835938 9.515625 -5.359375 Z M 9.515625 -5.359375 "/></g></g></g><g fill="#000000" fill-opacity="1"><g transform="translate(171.257769, 93.930984)"><g/></g></g><g fill="#000000" fill-opacity="1"><g transform="translate(177.950588, 93.930984)"><g><path d="M 9.90625 -4.34375 L 3.8125 -4.34375 L 3.8125 -6.28125 L 9.90625 -6.28125 Z M 10.765625 -8.703125 L 3.046875 -8.703125 L 3.046875 0 L 1.125 0 L 1.125 -9.65625 C 1.125 -9.789062 1.144531 -9.914062 1.1875 -10.03125 C 1.238281 -10.144531 1.304688 -10.242188 1.390625 -10.328125 C 1.484375 -10.421875 1.585938 -10.492188 1.703125 -10.546875 C 1.816406 -10.597656 1.945312 -10.625 2.09375 -10.625 L 10.765625 -10.625 Z M 10.765625 -8.703125 "/></g></g></g><g fill="#000000" fill-opacity="1"><g transform="translate(190.908224, 93.930984)"><g><path d="M 9.171875 -2.65625 C 9.171875 -2.382812 9.125 -2.09375 9.03125 -1.78125 C 8.9375 -1.476562 8.785156 -1.191406 8.578125 -0.921875 C 8.367188 -0.660156 8.09375 -0.441406 7.75 -0.265625 C 7.414062 -0.0859375 7.003906 0 6.515625 0 L 3.046875 0 C 2.773438 0 2.484375 -0.046875 2.171875 -0.140625 C 1.867188 -0.234375 1.582031 -0.382812 1.3125 -0.59375 C 1.050781 -0.800781 0.832031 -1.070312 0.65625 -1.40625 C 0.476562 -1.75 0.390625 -2.164062 0.390625 -2.65625 C 0.390625 -2.914062 0.4375 -3.203125 0.53125 -3.515625 C 0.625 -3.828125 0.773438 -4.113281 0.984375 -4.375 C 1.191406 -4.644531 1.460938 -4.867188 1.796875 -5.046875 C 2.140625 -5.222656 2.554688 -5.3125 3.046875 -5.3125 L 6.515625 -5.3125 L 6.515625 -3.46875 L 3.046875 -3.46875 C 2.785156 -3.46875 2.582031 -3.390625 2.4375 -3.234375 C 2.289062 -3.078125 2.21875 -2.878906 2.21875 -2.640625 C 2.21875 -2.390625 2.300781 -2.191406 2.46875 -2.046875 C 2.632812 -1.910156 2.832031 -1.84375 3.0625 -1.84375 L 6.515625 -1.84375 C 6.773438 -1.84375 6.976562 -1.921875 7.125 -2.078125 C 7.269531 -2.234375 7.34375 -2.429688 7.34375 -2.671875 L 7.34375 -5.359375 C 7.34375 -5.609375 7.265625 -5.804688 7.109375 -5.953125 C 6.953125 -6.097656 6.753906 -6.171875 6.515625 -6.171875 L 2.296875 -6.171875 L 2.296875 -8.015625 L 6.515625 -8.015625 C 6.785156 -8.015625 7.070312 -7.96875 7.375 -7.875 C 7.6875 -7.78125 7.972656 -7.625 8.234375 -7.40625 C 8.503906 -7.195312 8.726562 -6.921875 8.90625 -6.578125 C 9.082031 -6.242188 9.171875 -5.835938 9.171875 -5.359375 Z M 9.171875 -2.65625 "/></g></g></g><g fill="#000000" fill-opacity="1"><g transform="translate(202.577352, 93.930984)"><g><path d="M 8.65625 0 L 3.4375 0 C 3.164062 0 2.875 -0.046875 2.5625 -0.140625 C 2.25 -0.234375 1.957031 -0.382812 1.6875 -0.59375 C 1.414062 -0.8125 1.1875 -1.09375 1 -1.4375 C 0.820312 -1.78125 0.734375 -2.203125 0.734375 -2.703125 L 0.734375 -5.3125 C 0.734375 -5.488281 0.753906 -5.675781 0.796875 -5.875 C 0.835938 -6.082031 0.90625 -6.285156 1 -6.484375 C 1.09375 -6.691406 1.207031 -6.882812 1.34375 -7.0625 C 1.488281 -7.25 1.660156 -7.410156 1.859375 -7.546875 C 2.054688 -7.679688 2.285156 -7.789062 2.546875 -7.875 C 2.804688 -7.96875 3.101562 -8.015625 3.4375 -8.015625 L 8.65625 -8.015625 L 8.65625 -6.078125 L 3.4375 -6.078125 C 3.1875 -6.078125 2.992188 -6.015625 2.859375 -5.890625 C 2.734375 -5.765625 2.671875 -5.566406 2.671875 -5.296875 L 2.671875 -2.703125 C 2.671875 -2.453125 2.734375 -2.257812 2.859375 -2.125 C 2.992188 -1.988281 3.191406 -1.921875 3.453125 -1.921875 L 8.65625 -1.921875 Z M 8.65625 0 "/></g></g></g><g fill="#000000" fill-opacity="1"><g transform="translate(213.683683, 93.930984)"><g><path d="M 8.1875 -6.078125 L 4.828125 -6.078125 L 4.828125 0 L 2.875 0 L 2.875 -6.078125 L 0.375 -6.078125 L 0.375 -8.015625 L 2.875 -8.015625 L 2.875 -10.625 L 4.828125 -10.625 L 4.828125 -8.015625 L 8.1875 -8.015625 Z M 8.1875 -6.078125 "/></g></g></g><g fill="#000000" fill-opacity="1"><g transform="translate(223.99025, 93.930984)"><g><path d="M 9.609375 -2.703125 C 9.609375 -2.367188 9.566406 -2.070312 9.484375 -1.8125 C 9.398438 -1.550781 9.289062 -1.316406 9.15625 -1.109375 C 9.019531 -0.910156 8.859375 -0.738281 8.671875 -0.59375 C 8.492188 -0.457031 8.300781 -0.34375 8.09375 -0.25 C 7.894531 -0.164062 7.691406 -0.101562 7.484375 -0.0625 C 7.285156 -0.0195312 7.09375 0 6.90625 0 L 3.4375 0 C 3.164062 0 2.875 -0.046875 2.5625 -0.140625 C 2.25 -0.234375 1.957031 -0.382812 1.6875 -0.59375 C 1.414062 -0.8125 1.1875 -1.09375 1 -1.4375 C 0.820312 -1.78125 0.734375 -2.203125 0.734375 -2.703125 L 0.734375 -5.3125 C 0.734375 -5.800781 0.820312 -6.21875 1 -6.5625 C 1.1875 -6.90625 1.414062 -7.1875 1.6875 -7.40625 C 1.957031 -7.625 2.25 -7.78125 2.5625 -7.875 C 2.875 -7.96875 3.164062 -8.015625 3.4375 -8.015625 L 6.90625 -8.015625 C 7.40625 -8.015625 7.828125 -7.921875 8.171875 -7.734375 C 8.515625 -7.554688 8.789062 -7.332031 9 -7.0625 C 9.21875 -6.800781 9.375 -6.507812 9.46875 -6.1875 C 9.5625 -5.875 9.609375 -5.582031 9.609375 -5.3125 Z M 7.6875 -5.296875 C 7.6875 -5.566406 7.617188 -5.765625 7.484375 -5.890625 C 7.359375 -6.015625 7.164062 -6.078125 6.90625 -6.078125 L 3.453125 -6.078125 C 3.191406 -6.078125 2.992188 -6.007812 2.859375 -5.875 C 2.734375 -5.75 2.671875 -5.5625 2.671875 -5.3125 L 2.671875 -2.703125 C 2.671875 -2.453125 2.734375 -2.257812 2.859375 -2.125 C 2.992188 -1.988281 3.191406 -1.921875 3.453125 -1.921875 L 6.90625 -1.921875 C 7.164062 -1.921875 7.359375 -1.988281 7.484375 -2.125 C 7.617188 -2.257812 7.6875 -2.453125 7.6875 -2.703125 Z M 7.6875 -5.296875 "/></g></g></g><g fill="#000000" fill-opacity="1"><g transform="translate(236.096292, 93.930984)"><g><path d="M 7.90625 -6.078125 L 3.578125 -6.078125 C 3.316406 -6.078125 3.117188 -6.007812 2.984375 -5.875 C 2.847656 -5.75 2.78125 -5.5625 2.78125 -5.3125 L 2.78125 0 L 0.859375 0 L 0.859375 -5.3125 C 0.859375 -5.644531 0.898438 -5.941406 0.984375 -6.203125 C 1.066406 -6.460938 1.175781 -6.691406 1.3125 -6.890625 C 1.457031 -7.085938 1.617188 -7.253906 1.796875 -7.390625 C 1.984375 -7.535156 2.175781 -7.648438 2.375 -7.734375 C 2.582031 -7.828125 2.785156 -7.894531 2.984375 -7.9375 C 3.191406 -7.988281 3.382812 -8.015625 3.5625 -8.015625 L 7.90625 -8.015625 Z M 7.90625 -6.078125 "/></g></g></g><g fill="#000000" fill-opacity="1"><g transform="translate(246.128872, 93.930984)"><g><path d="M 9.734375 0.765625 C 9.734375 1.097656 9.691406 1.394531 9.609375 1.65625 C 9.523438 1.925781 9.410156 2.160156 9.265625 2.359375 C 9.128906 2.554688 8.96875 2.722656 8.78125 2.859375 C 8.601562 3.003906 8.414062 3.117188 8.21875 3.203125 C 8.019531 3.296875 7.816406 3.363281 7.609375 3.40625 C 7.410156 3.445312 7.21875 3.46875 7.03125 3.46875 L 3.5625 3.46875 L 3.5625 1.546875 L 7.03125 1.546875 C 7.289062 1.546875 7.484375 1.476562 7.609375 1.34375 C 7.742188 1.207031 7.8125 1.015625 7.8125 0.765625 L 7.8125 -8.015625 L 9.734375 -8.015625 Z M 7.03125 0 L 3.5625 0 C 3.289062 0 2.992188 -0.046875 2.671875 -0.140625 C 2.359375 -0.234375 2.066406 -0.382812 1.796875 -0.59375 C 1.523438 -0.8125 1.300781 -1.09375 1.125 -1.4375 C 0.945312 -1.78125 0.859375 -2.203125 0.859375 -2.703125 L 0.859375 -8.015625 L 2.78125 -8.015625 L 2.78125 -2.703125 C 2.78125 -2.453125 2.847656 -2.257812 2.984375 -2.125 C 3.117188 -1.988281 3.316406 -1.921875 3.578125 -1.921875 L 7.03125 -1.921875 Z M 7.03125 0 "/></g></g></g></svg>