<svg xmlns="http://www.w3.org/2000/svg" xmlns:xlink="http://www.w3.org/1999/xlink" width="350" zoomAndPan="magnify" viewBox="0 0 262.5 104.999996" height="140" preserveAspectRatio="xMidYMid meet" version="1.0"><defs><g/><clipPath id="ee2ca654dc"><path d="M 38 0.101562 L 153 0.101562 L 153 31 L 38 31 Z M 38 0.101562 " clip-rule="nonzero"/></clipPath><clipPath id="16b414ea6c"><path d="M 38 75 L 152 75 L 152 104.898438 L 38 104.898438 Z M 38 75 " clip-rule="nonzero"/></clipPath></defs><g fill="#000000" fill-opacity="1"><g transform="translate(58.06921, 66.737261)"><g><path d="M 49.890625 -16.796875 C 49.890625 -15.148438 49.679688 -13.59375 49.265625 -12.125 C 48.847656 -10.664062 48.253906 -9.3125 47.484375 -8.0625 C 46.722656 -6.8125 45.816406 -5.691406 44.765625 -4.703125 C 43.722656 -3.710938 42.582031 -2.867188 41.34375 -2.171875 C 40.101562 -1.472656 38.78125 -0.9375 37.375 -0.5625 C 35.976562 -0.1875 34.554688 0 33.109375 0 L 19.984375 0 C 18.503906 0 17.066406 -0.1875 15.671875 -0.5625 C 14.273438 -0.9375 12.953125 -1.472656 11.703125 -2.171875 C 10.460938 -2.867188 9.320312 -3.710938 8.28125 -4.703125 C 7.238281 -5.691406 6.335938 -6.8125 5.578125 -8.0625 C 4.828125 -9.3125 4.238281 -10.664062 3.8125 -12.125 C 3.394531 -13.59375 3.1875 -15.148438 3.1875 -16.796875 L 3.1875 -23.34375 C 3.1875 -25.800781 3.644531 -28.054688 4.5625 -30.109375 C 5.488281 -32.160156 6.726562 -33.925781 8.28125 -35.40625 C 9.832031 -36.894531 11.617188 -38.050781 13.640625 -38.875 C 15.660156 -39.707031 17.773438 -40.125 19.984375 -40.125 L 33.109375 -40.125 C 34.554688 -40.125 35.976562 -39.9375 37.375 -39.5625 C 38.78125 -39.195312 40.101562 -38.660156 41.34375 -37.953125 C 42.582031 -37.253906 43.722656 -36.410156 44.765625 -35.421875 C 45.816406 -34.441406 46.722656 -33.328125 47.484375 -32.078125 C 48.253906 -30.828125 48.847656 -29.46875 49.265625 -28 C 49.679688 -26.53125 49.890625 -24.976562 49.890625 -23.34375 Z M 42.5625 -23.34375 C 42.5625 -24.78125 42.300781 -26.082031 41.78125 -27.25 C 41.257812 -28.425781 40.5625 -29.429688 39.6875 -30.265625 C 38.820312 -31.109375 37.820312 -31.753906 36.6875 -32.203125 C 35.550781 -32.648438 34.359375 -32.867188 33.109375 -32.859375 L 19.984375 -32.859375 C 18.765625 -32.867188 17.582031 -32.65625 16.4375 -32.21875 C 15.289062 -31.78125 14.273438 -31.144531 13.390625 -30.3125 C 12.503906 -29.488281 11.796875 -28.484375 11.265625 -27.296875 C 10.734375 -26.109375 10.46875 -24.789062 10.46875 -23.34375 L 10.46875 -16.796875 C 10.46875 -15.335938 10.726562 -14.019531 11.25 -12.84375 C 11.769531 -11.664062 12.46875 -10.660156 13.34375 -9.828125 C 14.21875 -9.003906 15.226562 -8.367188 16.375 -7.921875 C 17.53125 -7.472656 18.734375 -7.257812 19.984375 -7.28125 L 33.109375 -7.28125 C 34.546875 -7.28125 35.847656 -7.515625 37.015625 -7.984375 C 38.179688 -8.460938 39.171875 -9.117188 39.984375 -9.953125 C 40.804688 -10.796875 41.441406 -11.800781 41.890625 -12.96875 C 42.335938 -14.132812 42.5625 -15.410156 42.5625 -16.796875 Z M 39.40625 -28.65625 C 39.6875 -28.25 39.875 -27.804688 39.96875 -27.328125 C 40.0625 -26.847656 40.0625 -26.378906 39.96875 -25.921875 C 39.875 -25.460938 39.691406 -25.03125 39.421875 -24.625 C 39.148438 -24.226562 38.796875 -23.894531 38.359375 -23.625 L 18.71875 -10.5 C 18.40625 -10.25 18.078125 -10.078125 17.734375 -9.984375 C 17.398438 -9.890625 17.054688 -9.84375 16.703125 -9.84375 C 16.109375 -9.84375 15.539062 -9.984375 15 -10.265625 C 14.457031 -10.546875 14.019531 -10.945312 13.6875 -11.46875 C 13.40625 -11.882812 13.21875 -12.328125 13.125 -12.796875 C 13.03125 -13.273438 13.023438 -13.742188 13.109375 -14.203125 C 13.191406 -14.660156 13.363281 -15.085938 13.625 -15.484375 C 13.882812 -15.890625 14.226562 -16.234375 14.65625 -16.515625 L 34.359375 -29.640625 C 34.773438 -29.921875 35.21875 -30.101562 35.6875 -30.1875 C 36.164062 -30.28125 36.632812 -30.28125 37.09375 -30.1875 C 37.550781 -30.101562 37.976562 -29.925781 38.375 -29.65625 C 38.78125 -29.394531 39.125 -29.0625 39.40625 -28.65625 Z M 39.40625 -28.65625 "/></g></g></g><g fill="#000000" fill-opacity="1"><g transform="translate(111.100254, 66.737261)"><g><path d="M 49.890625 -16.796875 C 49.890625 -15.148438 49.679688 -13.59375 49.265625 -12.125 C 48.847656 -10.664062 48.253906 -9.3125 47.484375 -8.0625 C 46.722656 -6.8125 45.816406 -5.691406 44.765625 -4.703125 C 43.722656 -3.710938 42.582031 -2.867188 41.34375 -2.171875 C 40.101562 -1.472656 38.78125 -0.9375 37.375 -0.5625 C 35.976562 -0.1875 34.554688 0 33.109375 0 L 19.984375 0 C 18.503906 0 17.066406 -0.1875 15.671875 -0.5625 C 14.273438 -0.9375 12.953125 -1.472656 11.703125 -2.171875 C 10.460938 -2.867188 9.320312 -3.710938 8.28125 -4.703125 C 7.238281 -5.691406 6.335938 -6.8125 5.578125 -8.0625 C 4.828125 -9.3125 4.238281 -10.664062 3.8125 -12.125 C 3.394531 -13.59375 3.1875 -15.148438 3.1875 -16.796875 L 3.1875 -23.34375 C 3.1875 -25.800781 3.644531 -28.054688 4.5625 -30.109375 C 5.488281 -32.160156 6.726562 -33.925781 8.28125 -35.40625 C 9.832031 -36.894531 11.617188 -38.050781 13.640625 -38.875 C 15.660156 -39.707031 17.773438 -40.125 19.984375 -40.125 L 33.109375 -40.125 C 34.554688 -40.125 35.976562 -39.9375 37.375 -39.5625 C 38.78125 -39.195312 40.101562 -38.660156 41.34375 -37.953125 C 42.582031 -37.253906 43.722656 -36.410156 44.765625 -35.421875 C 45.816406 -34.441406 46.722656 -33.328125 47.484375 -32.078125 C 48.253906 -30.828125 48.847656 -29.46875 49.265625 -28 C 49.679688 -26.53125 49.890625 -24.976562 49.890625 -23.34375 Z M 42.5625 -23.34375 C 42.5625 -24.78125 42.300781 -26.082031 41.78125 -27.25 C 41.257812 -28.425781 40.5625 -29.429688 39.6875 -30.265625 C 38.820312 -31.109375 37.820312 -31.753906 36.6875 -32.203125 C 35.550781 -32.648438 34.359375 -32.867188 33.109375 -32.859375 L 19.984375 -32.859375 C 18.765625 -32.867188 17.582031 -32.65625 16.4375 -32.21875 C 15.289062 -31.78125 14.273438 -31.144531 13.390625 -30.3125 C 12.503906 -29.488281 11.796875 -28.484375 11.265625 -27.296875 C 10.734375 -26.109375 10.46875 -24.789062 10.46875 -23.34375 L 10.46875 -16.796875 C 10.46875 -15.335938 10.726562 -14.019531 11.25 -12.84375 C 11.769531 -11.664062 12.46875 -10.660156 13.34375 -9.828125 C 14.21875 -9.003906 15.226562 -8.367188 16.375 -7.921875 C 17.53125 -7.472656 18.734375 -7.257812 19.984375 -7.28125 L 33.109375 -7.28125 C 34.546875 -7.28125 35.847656 -7.515625 37.015625 -7.984375 C 38.179688 -8.460938 39.171875 -9.117188 39.984375 -9.953125 C 40.804688 -10.796875 41.441406 -11.800781 41.890625 -12.96875 C 42.335938 -14.132812 42.5625 -15.410156 42.5625 -16.796875 Z M 39.40625 -28.65625 C 39.6875 -28.25 39.875 -27.804688 39.96875 -27.328125 C 40.0625 -26.847656 40.0625 -26.378906 39.96875 -25.921875 C 39.875 -25.460938 39.691406 -25.03125 39.421875 -24.625 C 39.148438 -24.226562 38.796875 -23.894531 38.359375 -23.625 L 18.71875 -10.5 C 18.40625 -10.25 18.078125 -10.078125 17.734375 -9.984375 C 17.398438 -9.890625 17.054688 -9.84375 16.703125 -9.84375 C 16.109375 -9.84375 15.539062 -9.984375 15 -10.265625 C 14.457031 -10.546875 14.019531 -10.945312 13.6875 -11.46875 C 13.40625 -11.882812 13.21875 -12.328125 13.125 -12.796875 C 13.03125 -13.273438 13.023438 -13.742188 13.109375 -14.203125 C 13.191406 -14.660156 13.363281 -15.085938 13.625 -15.484375 C 13.882812 -15.890625 14.226562 -16.234375 14.65625 -16.515625 L 34.359375 -29.640625 C 34.773438 -29.921875 35.21875 -30.101562 35.6875 -30.1875 C 36.164062 -30.28125 36.632812 -30.28125 37.09375 -30.1875 C 37.550781 -30.101562 37.976562 -29.925781 38.375 -29.65625 C 38.78125 -29.394531 39.125 -29.0625 39.40625 -28.65625 Z M 39.40625 -28.65625 "/></g></g></g><g fill="#eb6a2c" fill-opacity="1"><g transform="translate(164.132805, 66.737261)"><g><path d="M 46.28125 0 L 35.953125 0 L 19.59375 -16.40625 L 14.46875 -16.40625 L 14.46875 -23.734375 L 19.59375 -23.734375 L 35.953125 -40.125 L 46.28125 -40.125 L 25.65625 -20.0625 Z M 11.5625 0 L 4.28125 0 L 4.28125 -40.125 L 11.5625 -40.125 Z M 11.5625 0 "/></g></g></g><g fill="#eb6a2c" fill-opacity="1"><g transform="translate(78.616686, 76.624639)"><g><path d="M 7.203125 0 L 6 0 L 6 -1.625 L 1.78125 -1.625 L 1.78125 0 L 0.578125 0 L 0.578125 -3.3125 C 0.578125 -3.800781 0.660156 -4.25 0.828125 -4.65625 C 0.992188 -5.0625 1.222656 -5.410156 1.515625 -5.703125 C 1.804688 -5.992188 2.15625 -6.21875 2.5625 -6.375 C 2.96875 -6.539062 3.410156 -6.625 3.890625 -6.625 L 6.59375 -6.625 C 6.675781 -6.625 6.753906 -6.609375 6.828125 -6.578125 C 6.898438 -6.546875 6.960938 -6.503906 7.015625 -6.453125 C 7.078125 -6.398438 7.125 -6.335938 7.15625 -6.265625 C 7.1875 -6.191406 7.203125 -6.113281 7.203125 -6.03125 Z M 1.78125 -2.828125 L 6 -2.828125 L 6 -5.421875 L 3.890625 -5.421875 C 3.847656 -5.421875 3.769531 -5.414062 3.65625 -5.40625 C 3.539062 -5.394531 3.40625 -5.367188 3.25 -5.328125 C 3.09375 -5.285156 2.925781 -5.21875 2.75 -5.125 C 2.570312 -5.039062 2.410156 -4.921875 2.265625 -4.765625 C 2.128906 -4.609375 2.015625 -4.410156 1.921875 -4.171875 C 1.828125 -3.929688 1.78125 -3.644531 1.78125 -3.3125 Z M 1.78125 -2.828125 "/></g></g></g><g fill="#eb6a2c" fill-opacity="1"><g transform="translate(87.601482, 76.624639)"><g><path d="M 1.90625 0 L 0.703125 0 L 0.703125 -6.625 L 1.90625 -6.625 Z M 1.90625 0 "/></g></g></g><g fill="#eb6a2c" fill-opacity="1"><g transform="translate(91.311764, 76.624639)"><g/></g></g><g fill="#000000" fill-opacity="1"><g transform="translate(95.494693, 76.624639)"><g><path d="M 7.0625 -1.953125 C 7.0625 -1.710938 7.03125 -1.5 6.96875 -1.3125 C 6.914062 -1.125 6.835938 -0.957031 6.734375 -0.8125 C 6.640625 -0.664062 6.523438 -0.539062 6.390625 -0.4375 C 6.265625 -0.332031 6.128906 -0.25 5.984375 -0.1875 C 5.835938 -0.125 5.691406 -0.078125 5.546875 -0.046875 C 5.398438 -0.015625 5.265625 0 5.140625 0 L 0.5 0 L 0.5 -1.203125 L 5.140625 -1.203125 C 5.367188 -1.203125 5.546875 -1.269531 5.671875 -1.40625 C 5.796875 -1.539062 5.859375 -1.722656 5.859375 -1.953125 C 5.859375 -2.066406 5.84375 -2.164062 5.8125 -2.25 C 5.78125 -2.34375 5.734375 -2.421875 5.671875 -2.484375 C 5.609375 -2.554688 5.53125 -2.609375 5.4375 -2.640625 C 5.34375 -2.679688 5.242188 -2.703125 5.140625 -2.703125 L 2.375 -2.703125 C 2.175781 -2.703125 1.960938 -2.738281 1.734375 -2.8125 C 1.515625 -2.882812 1.304688 -2.992188 1.109375 -3.140625 C 0.921875 -3.296875 0.757812 -3.5 0.625 -3.75 C 0.5 -4 0.4375 -4.304688 0.4375 -4.671875 C 0.4375 -5.023438 0.5 -5.328125 0.625 -5.578125 C 0.757812 -5.828125 0.921875 -6.03125 1.109375 -6.1875 C 1.304688 -6.34375 1.515625 -6.453125 1.734375 -6.515625 C 1.960938 -6.585938 2.175781 -6.625 2.375 -6.625 L 6.46875 -6.625 L 6.46875 -5.421875 L 2.375 -5.421875 C 2.144531 -5.421875 1.960938 -5.351562 1.828125 -5.21875 C 1.703125 -5.082031 1.640625 -4.898438 1.640625 -4.671875 C 1.640625 -4.441406 1.703125 -4.257812 1.828125 -4.125 C 1.960938 -3.988281 2.144531 -3.921875 2.375 -3.921875 L 5.140625 -3.921875 C 5.273438 -3.921875 5.414062 -3.898438 5.5625 -3.859375 C 5.707031 -3.828125 5.847656 -3.773438 5.984375 -3.703125 C 6.128906 -3.640625 6.265625 -3.554688 6.390625 -3.453125 C 6.523438 -3.359375 6.640625 -3.238281 6.734375 -3.09375 C 6.835938 -2.945312 6.914062 -2.78125 6.96875 -2.59375 C 7.03125 -2.40625 7.0625 -2.191406 7.0625 -1.953125 Z M 7.0625 -1.953125 "/></g></g></g><g fill="#000000" fill-opacity="1"><g transform="translate(103.948807, 76.624639)"><g><path d="M 6 -1.6875 C 6 -1.476562 5.972656 -1.289062 5.921875 -1.125 C 5.867188 -0.96875 5.796875 -0.828125 5.703125 -0.703125 C 5.617188 -0.578125 5.519531 -0.46875 5.40625 -0.375 C 5.300781 -0.289062 5.1875 -0.21875 5.0625 -0.15625 C 4.9375 -0.101562 4.804688 -0.0625 4.671875 -0.03125 C 4.546875 -0.0078125 4.425781 0 4.3125 0 L 2.140625 0 C 1.972656 0 1.789062 -0.0234375 1.59375 -0.078125 C 1.394531 -0.140625 1.210938 -0.238281 1.046875 -0.375 C 0.878906 -0.507812 0.738281 -0.679688 0.625 -0.890625 C 0.519531 -1.109375 0.46875 -1.375 0.46875 -1.6875 L 0.46875 -3.3125 C 0.46875 -3.625 0.519531 -3.882812 0.625 -4.09375 C 0.738281 -4.3125 0.878906 -4.488281 1.046875 -4.625 C 1.210938 -4.757812 1.394531 -4.851562 1.59375 -4.90625 C 1.789062 -4.96875 1.972656 -5 2.140625 -5 L 4.3125 -5 C 4.625 -5 4.882812 -4.941406 5.09375 -4.828125 C 5.3125 -4.722656 5.488281 -4.582031 5.625 -4.40625 C 5.757812 -4.238281 5.851562 -4.054688 5.90625 -3.859375 C 5.96875 -3.660156 6 -3.476562 6 -3.3125 Z M 4.796875 -3.3125 C 4.796875 -3.476562 4.753906 -3.597656 4.671875 -3.671875 C 4.585938 -3.753906 4.46875 -3.796875 4.3125 -3.796875 L 2.15625 -3.796875 C 2 -3.796875 1.878906 -3.753906 1.796875 -3.671875 C 1.710938 -3.585938 1.671875 -3.46875 1.671875 -3.3125 L 1.671875 -1.6875 C 1.671875 -1.53125 1.710938 -1.410156 1.796875 -1.328125 C 1.878906 -1.242188 2 -1.203125 2.15625 -1.203125 L 4.3125 -1.203125 C 4.476562 -1.203125 4.597656 -1.242188 4.671875 -1.328125 C 4.753906 -1.410156 4.796875 -1.53125 4.796875 -1.6875 Z M 4.796875 -3.3125 "/></g></g></g><g fill="#000000" fill-opacity="1"><g transform="translate(111.493841, 76.624639)"><g><path d="M 4.984375 -3.796875 L 2.265625 -3.796875 L 2.265625 -5 L 4.984375 -5 Z M 4.984375 -5.96875 L 2.28125 -5.96875 C 2.113281 -5.96875 1.988281 -5.925781 1.90625 -5.84375 C 1.820312 -5.757812 1.78125 -5.640625 1.78125 -5.484375 L 1.78125 0 L 0.578125 0 L 0.578125 -5.484375 C 0.578125 -5.691406 0.601562 -5.875 0.65625 -6.03125 C 0.707031 -6.195312 0.773438 -6.34375 0.859375 -6.46875 C 0.953125 -6.59375 1.054688 -6.695312 1.171875 -6.78125 C 1.285156 -6.875 1.40625 -6.945312 1.53125 -7 C 1.65625 -7.0625 1.78125 -7.101562 1.90625 -7.125 C 2.03125 -7.15625 2.148438 -7.171875 2.265625 -7.171875 L 4.984375 -7.171875 Z M 4.984375 -5.96875 "/></g></g></g><g fill="#000000" fill-opacity="1"><g transform="translate(117.792926, 76.624639)"><g><path d="M 5.109375 -3.796875 L 3.015625 -3.796875 L 3.015625 0 L 1.796875 0 L 1.796875 -3.796875 L 0.234375 -3.796875 L 0.234375 -5 L 1.796875 -5 L 1.796875 -6.625 L 3.015625 -6.625 L 3.015625 -5 L 5.109375 -5 Z M 5.109375 -3.796875 "/></g></g></g><g fill="#000000" fill-opacity="1"><g transform="translate(124.216607, 76.624639)"><g><path d="M 8.796875 -5 C 8.597656 -4.570312 8.390625 -4.148438 8.171875 -3.734375 C 7.953125 -3.316406 7.71875 -2.921875 7.46875 -2.546875 C 7.226562 -2.179688 6.984375 -1.84375 6.734375 -1.53125 C 6.484375 -1.21875 6.234375 -0.945312 5.984375 -0.71875 C 5.734375 -0.5 5.488281 -0.320312 5.25 -0.1875 C 5.019531 -0.0625 4.800781 0 4.59375 0 C 4.507812 0 4.425781 -0.015625 4.34375 -0.046875 C 4.269531 -0.078125 4.207031 -0.117188 4.15625 -0.171875 C 4.101562 -0.222656 4.0625 -0.285156 4.03125 -0.359375 C 4 -0.429688 3.984375 -0.515625 3.984375 -0.609375 L 3.984375 -2.84375 L 1.59375 -0.1875 C 1.53125 -0.125 1.460938 -0.078125 1.390625 -0.046875 C 1.316406 -0.015625 1.242188 0 1.171875 0 C 1.085938 0 1.007812 -0.015625 0.9375 -0.046875 C 0.863281 -0.078125 0.796875 -0.117188 0.734375 -0.171875 C 0.679688 -0.222656 0.640625 -0.285156 0.609375 -0.359375 C 0.578125 -0.429688 0.5625 -0.515625 0.5625 -0.609375 L 0.5625 -5 L 1.765625 -5 L 1.765625 -2.15625 L 4.15625 -4.828125 C 4.25 -4.910156 4.351562 -4.960938 4.46875 -4.984375 C 4.582031 -5.015625 4.695312 -5.003906 4.8125 -4.953125 C 4.925781 -4.898438 5.015625 -4.820312 5.078125 -4.71875 C 5.148438 -4.625 5.1875 -4.519531 5.1875 -4.40625 L 5.1875 -1.546875 C 5.445312 -1.796875 5.679688 -2.054688 5.890625 -2.328125 C 6.097656 -2.609375 6.289062 -2.894531 6.46875 -3.1875 C 6.65625 -3.488281 6.828125 -3.789062 6.984375 -4.09375 C 7.140625 -4.394531 7.296875 -4.695312 7.453125 -5 Z M 8.796875 -5 "/></g></g></g><g fill="#000000" fill-opacity="1"><g transform="translate(133.944358, 76.624639)"><g><path d="M 5.71875 -1.65625 C 5.71875 -1.488281 5.6875 -1.304688 5.625 -1.109375 C 5.570312 -0.921875 5.476562 -0.742188 5.34375 -0.578125 C 5.21875 -0.410156 5.046875 -0.269531 4.828125 -0.15625 C 4.617188 -0.0507812 4.363281 0 4.0625 0 L 1.90625 0 C 1.738281 0 1.554688 -0.0234375 1.359375 -0.078125 C 1.171875 -0.140625 0.992188 -0.234375 0.828125 -0.359375 C 0.660156 -0.492188 0.519531 -0.664062 0.40625 -0.875 C 0.300781 -1.09375 0.25 -1.351562 0.25 -1.65625 C 0.25 -1.820312 0.273438 -2 0.328125 -2.1875 C 0.390625 -2.382812 0.484375 -2.566406 0.609375 -2.734375 C 0.742188 -2.898438 0.914062 -3.035156 1.125 -3.140625 C 1.34375 -3.253906 1.601562 -3.3125 1.90625 -3.3125 L 4.0625 -3.3125 L 4.0625 -2.171875 L 1.90625 -2.171875 C 1.738281 -2.171875 1.609375 -2.117188 1.515625 -2.015625 C 1.429688 -1.921875 1.390625 -1.796875 1.390625 -1.640625 C 1.390625 -1.484375 1.441406 -1.359375 1.546875 -1.265625 C 1.648438 -1.179688 1.769531 -1.140625 1.90625 -1.140625 L 4.0625 -1.140625 C 4.226562 -1.140625 4.351562 -1.1875 4.4375 -1.28125 C 4.53125 -1.382812 4.578125 -1.515625 4.578125 -1.671875 L 4.578125 -3.34375 C 4.578125 -3.5 4.53125 -3.625 4.4375 -3.71875 C 4.34375 -3.8125 4.21875 -3.859375 4.0625 -3.859375 L 1.421875 -3.859375 L 1.421875 -5 L 4.0625 -5 C 4.226562 -5 4.40625 -4.96875 4.59375 -4.90625 C 4.789062 -4.851562 4.972656 -4.757812 5.140625 -4.625 C 5.304688 -4.488281 5.441406 -4.316406 5.546875 -4.109375 C 5.660156 -3.898438 5.71875 -3.644531 5.71875 -3.34375 Z M 5.71875 -1.65625 "/></g></g></g><g fill="#000000" fill-opacity="1"><g transform="translate(141.21713, 76.624639)"><g><path d="M 4.9375 -3.796875 L 2.234375 -3.796875 C 2.066406 -3.796875 1.941406 -3.753906 1.859375 -3.671875 C 1.773438 -3.585938 1.734375 -3.46875 1.734375 -3.3125 L 1.734375 0 L 0.53125 0 L 0.53125 -3.3125 C 0.53125 -3.519531 0.554688 -3.703125 0.609375 -3.859375 C 0.660156 -4.023438 0.726562 -4.171875 0.8125 -4.296875 C 0.90625 -4.421875 1.007812 -4.523438 1.125 -4.609375 C 1.238281 -4.703125 1.359375 -4.773438 1.484375 -4.828125 C 1.609375 -4.890625 1.734375 -4.929688 1.859375 -4.953125 C 1.992188 -4.984375 2.113281 -5 2.21875 -5 L 4.9375 -5 Z M 4.9375 -3.796875 "/></g></g></g><g fill="#000000" fill-opacity="1"><g transform="translate(147.470067, 76.624639)"><g><path d="M 5.9375 -3.34375 C 5.9375 -3.175781 5.90625 -2.992188 5.84375 -2.796875 C 5.789062 -2.609375 5.695312 -2.429688 5.5625 -2.265625 C 5.4375 -2.097656 5.265625 -1.957031 5.046875 -1.84375 C 4.835938 -1.738281 4.582031 -1.6875 4.28125 -1.6875 L 2.125 -1.6875 L 2.125 -2.828125 L 4.28125 -2.828125 C 4.445312 -2.828125 4.570312 -2.875 4.65625 -2.96875 C 4.75 -3.070312 4.796875 -3.203125 4.796875 -3.359375 C 4.796875 -3.515625 4.742188 -3.632812 4.640625 -3.71875 C 4.546875 -3.8125 4.425781 -3.859375 4.28125 -3.859375 L 2.125 -3.859375 C 1.957031 -3.859375 1.828125 -3.804688 1.734375 -3.703125 C 1.648438 -3.609375 1.609375 -3.484375 1.609375 -3.328125 L 1.609375 -1.65625 C 1.609375 -1.5 1.65625 -1.375 1.75 -1.28125 C 1.851562 -1.1875 1.976562 -1.140625 2.125 -1.140625 L 4.28125 -1.140625 L 4.28125 0 L 2.125 0 C 1.957031 0 1.773438 -0.0234375 1.578125 -0.078125 C 1.390625 -0.140625 1.210938 -0.234375 1.046875 -0.359375 C 0.878906 -0.492188 0.738281 -0.664062 0.625 -0.875 C 0.519531 -1.09375 0.46875 -1.351562 0.46875 -1.65625 L 0.46875 -3.34375 C 0.46875 -3.507812 0.492188 -3.6875 0.546875 -3.875 C 0.609375 -4.070312 0.703125 -4.253906 0.828125 -4.421875 C 0.960938 -4.585938 1.132812 -4.722656 1.34375 -4.828125 C 1.5625 -4.941406 1.820312 -5 2.125 -5 L 4.28125 -5 C 4.445312 -5 4.625 -4.96875 4.8125 -4.90625 C 5.007812 -4.851562 5.191406 -4.757812 5.359375 -4.625 C 5.523438 -4.488281 5.660156 -4.316406 5.765625 -4.109375 C 5.878906 -3.898438 5.9375 -3.644531 5.9375 -3.34375 Z M 5.9375 -3.34375 "/></g></g></g><g fill="#000000" fill-opacity="1"><g transform="translate(154.742839, 76.624639)"><g/></g></g><g fill="#000000" fill-opacity="1"><g transform="translate(158.914584, 76.624639)"><g><path d="M 6.1875 -2.703125 L 2.375 -2.703125 L 2.375 -3.921875 L 6.1875 -3.921875 Z M 6.71875 -5.421875 L 1.90625 -5.421875 L 1.90625 0 L 0.703125 0 L 0.703125 -6.03125 C 0.703125 -6.113281 0.71875 -6.191406 0.75 -6.265625 C 0.78125 -6.335938 0.820312 -6.398438 0.875 -6.453125 C 0.925781 -6.503906 0.988281 -6.546875 1.0625 -6.578125 C 1.132812 -6.609375 1.210938 -6.625 1.296875 -6.625 L 6.71875 -6.625 Z M 6.71875 -5.421875 "/></g></g></g><g fill="#000000" fill-opacity="1"><g transform="translate(166.9903, 76.624639)"><g><path d="M 5.71875 -1.65625 C 5.71875 -1.488281 5.6875 -1.304688 5.625 -1.109375 C 5.570312 -0.921875 5.476562 -0.742188 5.34375 -0.578125 C 5.21875 -0.410156 5.046875 -0.269531 4.828125 -0.15625 C 4.617188 -0.0507812 4.363281 0 4.0625 0 L 1.90625 0 C 1.738281 0 1.554688 -0.0234375 1.359375 -0.078125 C 1.171875 -0.140625 0.992188 -0.234375 0.828125 -0.359375 C 0.660156 -0.492188 0.519531 -0.664062 0.40625 -0.875 C 0.300781 -1.09375 0.25 -1.351562 0.25 -1.65625 C 0.25 -1.820312 0.273438 -2 0.328125 -2.1875 C 0.390625 -2.382812 0.484375 -2.566406 0.609375 -2.734375 C 0.742188 -2.898438 0.914062 -3.035156 1.125 -3.140625 C 1.34375 -3.253906 1.601562 -3.3125 1.90625 -3.3125 L 4.0625 -3.3125 L 4.0625 -2.171875 L 1.90625 -2.171875 C 1.738281 -2.171875 1.609375 -2.117188 1.515625 -2.015625 C 1.429688 -1.921875 1.390625 -1.796875 1.390625 -1.640625 C 1.390625 -1.484375 1.441406 -1.359375 1.546875 -1.265625 C 1.648438 -1.179688 1.769531 -1.140625 1.90625 -1.140625 L 4.0625 -1.140625 C 4.226562 -1.140625 4.351562 -1.1875 4.4375 -1.28125 C 4.53125 -1.382812 4.578125 -1.515625 4.578125 -1.671875 L 4.578125 -3.34375 C 4.578125 -3.5 4.53125 -3.625 4.4375 -3.71875 C 4.34375 -3.8125 4.21875 -3.859375 4.0625 -3.859375 L 1.421875 -3.859375 L 1.421875 -5 L 4.0625 -5 C 4.226562 -5 4.40625 -4.96875 4.59375 -4.90625 C 4.789062 -4.851562 4.972656 -4.757812 5.140625 -4.625 C 5.304688 -4.488281 5.441406 -4.316406 5.546875 -4.109375 C 5.660156 -3.898438 5.71875 -3.644531 5.71875 -3.34375 Z M 5.71875 -1.65625 "/></g></g></g><g fill="#000000" fill-opacity="1"><g transform="translate(174.263072, 76.624639)"><g><path d="M 5.40625 0 L 2.140625 0 C 1.972656 0 1.789062 -0.0234375 1.59375 -0.078125 C 1.394531 -0.140625 1.210938 -0.238281 1.046875 -0.375 C 0.878906 -0.507812 0.738281 -0.679688 0.625 -0.890625 C 0.519531 -1.109375 0.46875 -1.375 0.46875 -1.6875 L 0.46875 -3.3125 C 0.46875 -3.425781 0.476562 -3.546875 0.5 -3.671875 C 0.53125 -3.796875 0.570312 -3.921875 0.625 -4.046875 C 0.675781 -4.171875 0.742188 -4.289062 0.828125 -4.40625 C 0.921875 -4.519531 1.03125 -4.617188 1.15625 -4.703125 C 1.28125 -4.796875 1.421875 -4.867188 1.578125 -4.921875 C 1.742188 -4.972656 1.929688 -5 2.140625 -5 L 5.40625 -5 L 5.40625 -3.796875 L 2.140625 -3.796875 C 1.984375 -3.796875 1.863281 -3.753906 1.78125 -3.671875 C 1.707031 -3.597656 1.671875 -3.476562 1.671875 -3.3125 L 1.671875 -1.6875 C 1.671875 -1.53125 1.710938 -1.410156 1.796875 -1.328125 C 1.878906 -1.242188 2 -1.203125 2.15625 -1.203125 L 5.40625 -1.203125 Z M 5.40625 0 "/></g></g></g><g fill="#000000" fill-opacity="1"><g transform="translate(181.185132, 76.624639)"><g><path d="M 5.109375 -3.796875 L 3.015625 -3.796875 L 3.015625 0 L 1.796875 0 L 1.796875 -3.796875 L 0.234375 -3.796875 L 0.234375 -5 L 1.796875 -5 L 1.796875 -6.625 L 3.015625 -6.625 L 3.015625 -5 L 5.109375 -5 Z M 5.109375 -3.796875 "/></g></g></g><g fill="#000000" fill-opacity="1"><g transform="translate(187.608813, 76.624639)"><g><path d="M 6 -1.6875 C 6 -1.476562 5.972656 -1.289062 5.921875 -1.125 C 5.867188 -0.96875 5.796875 -0.828125 5.703125 -0.703125 C 5.617188 -0.578125 5.519531 -0.46875 5.40625 -0.375 C 5.300781 -0.289062 5.1875 -0.21875 5.0625 -0.15625 C 4.9375 -0.101562 4.804688 -0.0625 4.671875 -0.03125 C 4.546875 -0.0078125 4.425781 0 4.3125 0 L 2.140625 0 C 1.972656 0 1.789062 -0.0234375 1.59375 -0.078125 C 1.394531 -0.140625 1.210938 -0.238281 1.046875 -0.375 C 0.878906 -0.507812 0.738281 -0.679688 0.625 -0.890625 C 0.519531 -1.109375 0.46875 -1.375 0.46875 -1.6875 L 0.46875 -3.3125 C 0.46875 -3.625 0.519531 -3.882812 0.625 -4.09375 C 0.738281 -4.3125 0.878906 -4.488281 1.046875 -4.625 C 1.210938 -4.757812 1.394531 -4.851562 1.59375 -4.90625 C 1.789062 -4.96875 1.972656 -5 2.140625 -5 L 4.3125 -5 C 4.625 -5 4.882812 -4.941406 5.09375 -4.828125 C 5.3125 -4.722656 5.488281 -4.582031 5.625 -4.40625 C 5.757812 -4.238281 5.851562 -4.054688 5.90625 -3.859375 C 5.96875 -3.660156 6 -3.476562 6 -3.3125 Z M 4.796875 -3.3125 C 4.796875 -3.476562 4.753906 -3.597656 4.671875 -3.671875 C 4.585938 -3.753906 4.46875 -3.796875 4.3125 -3.796875 L 2.15625 -3.796875 C 2 -3.796875 1.878906 -3.753906 1.796875 -3.671875 C 1.710938 -3.585938 1.671875 -3.46875 1.671875 -3.3125 L 1.671875 -1.6875 C 1.671875 -1.53125 1.710938 -1.410156 1.796875 -1.328125 C 1.878906 -1.242188 2 -1.203125 2.15625 -1.203125 L 4.3125 -1.203125 C 4.476562 -1.203125 4.597656 -1.242188 4.671875 -1.328125 C 4.753906 -1.410156 4.796875 -1.53125 4.796875 -1.6875 Z M 4.796875 -3.3125 "/></g></g></g><g fill="#000000" fill-opacity="1"><g transform="translate(195.153842, 76.624639)"><g><path d="M 4.9375 -3.796875 L 2.234375 -3.796875 C 2.066406 -3.796875 1.941406 -3.753906 1.859375 -3.671875 C 1.773438 -3.585938 1.734375 -3.46875 1.734375 -3.3125 L 1.734375 0 L 0.53125 0 L 0.53125 -3.3125 C 0.53125 -3.519531 0.554688 -3.703125 0.609375 -3.859375 C 0.660156 -4.023438 0.726562 -4.171875 0.8125 -4.296875 C 0.90625 -4.421875 1.007812 -4.523438 1.125 -4.609375 C 1.238281 -4.703125 1.359375 -4.773438 1.484375 -4.828125 C 1.609375 -4.890625 1.734375 -4.929688 1.859375 -4.953125 C 1.992188 -4.984375 2.113281 -5 2.21875 -5 L 4.9375 -5 Z M 4.9375 -3.796875 "/></g></g></g><g fill="#000000" fill-opacity="1"><g transform="translate(201.406782, 76.624639)"><g><path d="M 6.078125 0.484375 C 6.078125 0.691406 6.050781 0.875 6 1.03125 C 5.945312 1.195312 5.875 1.34375 5.78125 1.46875 C 5.695312 1.59375 5.597656 1.695312 5.484375 1.78125 C 5.367188 1.875 5.25 1.945312 5.125 2 C 5 2.0625 4.875 2.101562 4.75 2.125 C 4.625 2.15625 4.503906 2.171875 4.390625 2.171875 L 2.21875 2.171875 L 2.21875 0.96875 L 4.390625 0.96875 C 4.546875 0.96875 4.664062 0.925781 4.75 0.84375 C 4.832031 0.757812 4.875 0.640625 4.875 0.484375 L 4.875 -5 L 6.078125 -5 Z M 4.390625 0 L 2.21875 0 C 2.050781 0 1.867188 -0.0234375 1.671875 -0.078125 C 1.472656 -0.140625 1.289062 -0.238281 1.125 -0.375 C 0.957031 -0.507812 0.816406 -0.679688 0.703125 -0.890625 C 0.585938 -1.109375 0.53125 -1.375 0.53125 -1.6875 L 0.53125 -5 L 1.734375 -5 L 1.734375 -1.6875 C 1.734375 -1.53125 1.773438 -1.410156 1.859375 -1.328125 C 1.941406 -1.242188 2.066406 -1.203125 2.234375 -1.203125 L 4.390625 -1.203125 Z M 4.390625 0 "/></g></g></g><path stroke-linecap="butt" transform="matrix(0, 0.338336, -0.338336, 0, 137.001315, 82.367429)" fill="none" stroke-linejoin="miter" d="M -0.000713259 3.99862 L 28.42423 3.99862 " stroke="#eb6a2c" stroke-width="8" stroke-opacity="1" stroke-miterlimit="4"/><g clip-path="url(#ee2ca654dc)"><path stroke-linecap="butt" transform="matrix(0.336312, 0.0369513, -0.0369513, 0.336312, 53.851464, 4.554261)" fill="none" stroke-linejoin="miter" d="M -0.00191323 3.997019 L 247.234185 4.000053 " stroke="#eb6a2c" stroke-width="8" stroke-opacity="1" stroke-miterlimit="4"/></g><g clip-path="url(#16b414ea6c)"><path stroke-linecap="butt" transform="matrix(0.336609, -0.0341418, 0.0341418, 0.336609, 53.393506, 97.783758)" fill="none" stroke-linejoin="miter" d="M 0.00384428 3.996562 L 246.974486 4.00348 " stroke="#eb6a2c" stroke-width="8" stroke-opacity="1" stroke-miterlimit="4"/></g><path stroke-linecap="butt" transform="matrix(0, 0.338336, -0.338336, 0, 53.918416, 4.517038)" fill="none" stroke-linejoin="miter" d="M -0.00417505 3.996054 L 283.644898 3.996054 " stroke="#eb6a2c" stroke-width="8" stroke-opacity="1" stroke-miterlimit="4"/><path stroke-linecap="butt" transform="matrix(0, 0.338336, -0.338336, 0, 137.000717, 14.020683)" fill="none" stroke-linejoin="miter" d="M -0.00340414 3.99685 L 26.851356 3.99685 " stroke="#eb6a2c" stroke-width="8" stroke-opacity="1" stroke-miterlimit="4"/></svg>